# xmcd CD database file
#
# Track frame offsets:
#	150
#	20217
#	40507
#	61422
#	81442
#	99487
#	118252
#	136735
#	156507
#	177788
#
# Disc length: 2623 seconds
#
# Revision: 0
# Processed by: cddbd v1.4PL0 Copyright (c) Steve Scherf et al.
# Submitted via: CDex 1.50beta10
#
DISCID=840a3d0a
DTITLE=Kim de los Santos - Llego El Campeon
DYEAR=2003
DGENRE=Salsa
TTITLE0=Mira Lo Que Has Hecho
TTITLE1=Cada Dia Mas
TTITLE2=Buscando Un Amor
TTITLE3=De Besos Y Caricias
TTITLE4=New York
TTITLE5=Copias
TTITLE6=Llego El Campeon
TTITLE7=Como Quisiera Saber
TTITLE8=Al Borde De La Cama
TTITLE9=Dame un Poquito De Amor
EXTD=YEAR: 2003
EXTT0=
EXTT1=
EXTT2=
EXTT3=
EXTT4=
EXTT5=
EXTT6=
EXTT7=
EXTT8=
EXTT9=
PLAYORDER=
